<?xml version="1.0" encoding="UTF-8"?>
<svg width="800" height="1200" viewBox="0 0 1200 1800" xmlns="http://www.w3.org/2000/svg">
  <!-- Background -->
  <rect width="1200" height="1800" fill="#1a0f2e"/>

  <!-- Top row of books -->
  <rect x="80" y="150" width="60" height="280" fill="#581c87" opacity="0.9"/>
  <rect x="155" y="180" width="55" height="320" fill="#6b21a8" opacity="0.85"/>
  <rect x="225" y="140" width="70" height="300" fill="#7c3aed" opacity="0.9"/>
  <rect x="310" y="170" width="50" height="260" fill="#9333ea" opacity="0.88"/>
  <rect x="375" y="155" width="65" height="310" fill="#a855f7" opacity="0.9"/>
  <rect x="455" y="190" width="58" height="290" fill="#581c87" opacity="0.87"/>
  <rect x="528" y="160" width="62" height="275" fill="#6b21a8" opacity="0.9"/>
  <rect x="605" y="145" width="55" height="305" fill="#7c3aed" opacity="0.88"/>
  <rect x="675" y="175" width="68" height="285" fill="#9333ea" opacity="0.9"/>
  <rect x="758" y="150" width="52" height="295" fill="#a855f7" opacity="0.87"/>
  <rect x="825" y="165" width="63" height="310" fill="#581c87" opacity="0.9"/>
  <rect x="903" y="155" width="57" height="270" fill="#6b21a8" opacity="0.88"/>
  <rect x="975" y="180" width="65" height="300" fill="#7c3aed" opacity="0.9"/>
  <rect x="1055" y="170" width="60" height="280" fill="#9333ea" opacity="0.87"/>

  <!-- Middle row of books -->
  <rect x="70" y="650" width="58" height="300" fill="#7c3aed" opacity="0.9"/>
  <rect x="143" y="680" width="64" height="320" fill="#581c87" opacity="0.87"/>
  <rect x="222" y="660" width="56" height="285" fill="#9333ea" opacity="0.9"/>
  <rect x="293" y="670" width="62" height="310" fill="#6b21a8" opacity="0.88"/>
  <rect x="370" y="645" width="70" height="295" fill="#a855f7" opacity="0.9"/>
  <rect x="455" y="690" width="54" height="280" fill="#7c3aed" opacity="0.87"/>
  <rect x="524" y="655" width="66" height="305" fill="#581c87" opacity="0.9"/>
  <rect x="605" y="675" width="60" height="290" fill="#9333ea" opacity="0.88"/>
  <rect x="680" y="665" width="58" height="315" fill="#6b21a8" opacity="0.9"/>
  <rect x="753" y="650" width="64" height="285" fill="#a855f7" opacity="0.87"/>
  <rect x="832" y="680" width="56" height="300" fill="#7c3aed" opacity="0.9"/>
  <rect x="903" y="670" width="62" height="275" fill="#581c87" opacity="0.88"/>
  <rect x="980" y="655" width="68" height="310" fill="#9333ea" opacity="0.9"/>
  <rect x="1063" y="665" width="55" height="295" fill="#6b21a8" opacity="0.87"/>

  <!-- Bottom row of books -->
  <rect x="90" y="1250" width="62" height="310" fill="#6b21a8" opacity="0.9"/>
  <rect x="167" y="1280" width="57" height="290" fill="#a855f7" opacity="0.87"/>
  <rect x="239" y="1260" width="65" height="325" fill="#581c87" opacity="0.9"/>
  <rect x="319" y="1270" width="60" height="300" fill="#7c3aed" opacity="0.88"/>
  <rect x="394" y="1245" width="68" height="315" fill="#9333ea" opacity="0.9"/>
  <rect x="477" y="1285" width="54" height="285" fill="#6b21a8" opacity="0.87"/>
  <rect x="546" y="1255" width="63" height="305" fill="#a855f7" opacity="0.9"/>
  <rect x="624" y="1275" width="58" height="295" fill="#581c87" opacity="0.88"/>
  <rect x="697" y="1265" width="66" height="310" fill="#7c3aed" opacity="0.9"/>
  <rect x="778" y="1250" width="56" height="290" fill="#9333ea" opacity="0.87"/>
  <rect x="849" y="1270" width="64" height="305" fill="#6b21a8" opacity="0.9"/>
  <rect x="928" y="1260" width="60" height="280" fill="#a855f7" opacity="0.88"/>
  <rect x="1003" y="1280" width="62" height="300" fill="#581c87" opacity="0.9"/>
  <rect x="1080" y="1265" width="58" height="315" fill="#7c3aed" opacity="0.87"/>
</svg>
